<mxfile host="app.diagrams.net" modified="2023-08-24T09:49:25.208Z" agent="Mozilla/5.0 (Windows NT 10.0; Win64; x64) AppleWebKit/537.36 (KHTML, like Gecko) Chrome/115.0.0.0 Safari/537.36" etag="FIKc_4XiS3HUSds4uCSK" version="21.6.8" type="device">
  <diagram id="C5RBs43oDa-KdzZeNtuy" name="Page-1">
    <mxGraphModel dx="2770" dy="1986" grid="1" gridSize="10" guides="1" tooltips="1" connect="1" arrows="1" fold="1" page="1" pageScale="1" pageWidth="827" pageHeight="1169" math="0" shadow="0">
      <root>
        <mxCell id="WIyWlLk6GJQsqaUBKTNV-0" />
        <mxCell id="WIyWlLk6GJQsqaUBKTNV-1" parent="WIyWlLk6GJQsqaUBKTNV-0" />
        <mxCell id="xALUO3HwdJlkxT8yfgA3-7" value="&lt;font style=&quot;font-size: 30px;&quot;&gt;User&lt;/font&gt;" style="rounded=0;whiteSpace=wrap;html=1;strokeWidth=4;" parent="WIyWlLk6GJQsqaUBKTNV-1" vertex="1">
          <mxGeometry x="1280" y="300" width="1840" height="60" as="geometry" />
        </mxCell>
        <mxCell id="xALUO3HwdJlkxT8yfgA3-140" value="" style="endArrow=none;html=1;rounded=0;strokeWidth=4;" parent="WIyWlLk6GJQsqaUBKTNV-1" edge="1">
          <mxGeometry width="50" height="50" relative="1" as="geometry">
            <mxPoint x="1280" y="3110" as="sourcePoint" />
            <mxPoint x="1280" y="320" as="targetPoint" />
          </mxGeometry>
        </mxCell>
        <mxCell id="xALUO3HwdJlkxT8yfgA3-143" value="" style="endArrow=none;html=1;rounded=0;entryX=0;entryY=1;entryDx=0;entryDy=0;strokeWidth=4;" parent="WIyWlLk6GJQsqaUBKTNV-1" edge="1">
          <mxGeometry width="50" height="50" relative="1" as="geometry">
            <mxPoint x="3117" y="3120" as="sourcePoint" />
            <mxPoint x="3117.140000000001" y="370" as="targetPoint" />
          </mxGeometry>
        </mxCell>
        <mxCell id="TLsUlpolCmr_xRNrr_nB-163" value="" style="endArrow=none;html=1;rounded=0;strokeWidth=4;" parent="WIyWlLk6GJQsqaUBKTNV-1" edge="1">
          <mxGeometry width="50" height="50" relative="1" as="geometry">
            <mxPoint x="1280" y="3110" as="sourcePoint" />
            <mxPoint x="3120" y="3110" as="targetPoint" />
          </mxGeometry>
        </mxCell>
        <mxCell id="_sAIt1mrX6FmBIjSAhMb-64" value="&lt;font style=&quot;font-size: 22px;&quot;&gt;ส่งข้อความผลการทำงานกลับเป็น string ว่า&lt;br style=&quot;border-color: var(--border-color);&quot;&gt;ได้ดำเนินการอะไรไป&lt;br style=&quot;border-color: var(--border-color);&quot;&gt;&amp;nbsp;(insert หรือ&lt;br style=&quot;border-color: var(--border-color);&quot;&gt;ไม่ insert เพราะมีข้อมูลวิชานี้อยู่เเล้ว)&lt;/font&gt;&lt;span style=&quot;font-size: 22px;&quot;&gt;&lt;br&gt;&lt;/span&gt;" style="rounded=0;whiteSpace=wrap;html=1;strokeWidth=4;" parent="WIyWlLk6GJQsqaUBKTNV-1" vertex="1">
          <mxGeometry x="1842.0000000000002" y="2755" width="450.87" height="120" as="geometry" />
        </mxCell>
        <mxCell id="_sAIt1mrX6FmBIjSAhMb-65" value="&lt;font style=&quot;font-size: 22px;&quot;&gt;บันทึก activity ที่ทำเข้า&lt;br&gt;log file&lt;br&gt;&lt;/font&gt;" style="rounded=0;whiteSpace=wrap;html=1;strokeWidth=4;" parent="WIyWlLk6GJQsqaUBKTNV-1" vertex="1">
          <mxGeometry x="1956.1900000000003" y="2555" width="220" height="120" as="geometry" />
        </mxCell>
        <mxCell id="_sAIt1mrX6FmBIjSAhMb-66" value="" style="ellipse;whiteSpace=wrap;html=1;aspect=fixed;strokeWidth=4;" parent="WIyWlLk6GJQsqaUBKTNV-1" vertex="1">
          <mxGeometry x="2037.1900000000003" y="2435" width="50" height="50" as="geometry" />
        </mxCell>
        <mxCell id="_sAIt1mrX6FmBIjSAhMb-67" value="" style="endArrow=classic;html=1;rounded=0;exitX=0.5;exitY=1;exitDx=0;exitDy=0;strokeWidth=4;" parent="WIyWlLk6GJQsqaUBKTNV-1" edge="1">
          <mxGeometry width="50" height="50" relative="1" as="geometry">
            <mxPoint x="2061.5700000000006" y="2485" as="sourcePoint" />
            <mxPoint x="2061.84" y="2545" as="targetPoint" />
          </mxGeometry>
        </mxCell>
        <mxCell id="_sAIt1mrX6FmBIjSAhMb-68" value="" style="endArrow=classic;html=1;rounded=0;exitX=0.5;exitY=1;exitDx=0;exitDy=0;entryX=0.5;entryY=0;entryDx=0;entryDy=0;strokeWidth=4;" parent="WIyWlLk6GJQsqaUBKTNV-1" source="_sAIt1mrX6FmBIjSAhMb-65" target="_sAIt1mrX6FmBIjSAhMb-64" edge="1">
          <mxGeometry width="50" height="50" relative="1" as="geometry">
            <mxPoint x="2061.6000000000004" y="2685" as="sourcePoint" />
            <mxPoint x="2061.87" y="2745" as="targetPoint" />
          </mxGeometry>
        </mxCell>
        <mxCell id="_sAIt1mrX6FmBIjSAhMb-69" value="" style="ellipse;whiteSpace=wrap;html=1;aspect=fixed;strokeWidth=4;" parent="WIyWlLk6GJQsqaUBKTNV-1" vertex="1">
          <mxGeometry x="2041.1900000000003" y="2976" width="50" height="50" as="geometry" />
        </mxCell>
        <mxCell id="_sAIt1mrX6FmBIjSAhMb-70" value="" style="ellipse;whiteSpace=wrap;html=1;aspect=fixed;fillColor=#050505;strokeWidth=4;" parent="WIyWlLk6GJQsqaUBKTNV-1" vertex="1">
          <mxGeometry x="2048.6900000000005" y="2983.5" width="35" height="35" as="geometry" />
        </mxCell>
        <mxCell id="_sAIt1mrX6FmBIjSAhMb-71" value="" style="endArrow=classic;html=1;rounded=0;exitX=0.5;exitY=1;exitDx=0;exitDy=0;entryX=0.5;entryY=0;entryDx=0;entryDy=0;strokeWidth=4;" parent="WIyWlLk6GJQsqaUBKTNV-1" edge="1">
          <mxGeometry width="50" height="50" relative="1" as="geometry">
            <mxPoint x="2066.1900000000005" y="2875" as="sourcePoint" />
            <mxPoint x="2066.1899999999996" y="2976" as="targetPoint" />
          </mxGeometry>
        </mxCell>
        <mxCell id="_sAIt1mrX6FmBIjSAhMb-72" value="" style="endArrow=classic;html=1;rounded=0;exitX=1;exitY=0.5;exitDx=0;exitDy=0;entryX=0.464;entryY=0.025;entryDx=0;entryDy=0;entryPerimeter=0;strokeWidth=4;" parent="WIyWlLk6GJQsqaUBKTNV-1" target="_sAIt1mrX6FmBIjSAhMb-76" edge="1">
          <mxGeometry width="50" height="50" relative="1" as="geometry">
            <mxPoint x="2418.18" y="1866.25" as="sourcePoint" />
            <mxPoint x="2488.18" y="1976.25" as="targetPoint" />
            <Array as="points">
              <mxPoint x="2480" y="1866" />
            </Array>
          </mxGeometry>
        </mxCell>
        <mxCell id="_sAIt1mrX6FmBIjSAhMb-73" value="&lt;font style=&quot;font-size: 22px;&quot;&gt;ไม่มีรหัสนักศึกษา&lt;br&gt;คนนี้ใน&lt;br&gt;ในฐานข้อมูล&lt;/font&gt;" style="rhombus;whiteSpace=wrap;html=1;strokeWidth=4;" parent="WIyWlLk6GJQsqaUBKTNV-1" vertex="1">
          <mxGeometry x="2209.68" y="1761" width="208.5" height="205.25" as="geometry" />
        </mxCell>
        <mxCell id="_sAIt1mrX6FmBIjSAhMb-74" value="&lt;font style=&quot;font-size: 23px;&quot;&gt;F&lt;/font&gt;" style="text;html=1;align=center;verticalAlign=middle;resizable=0;points=[];autosize=1;strokeColor=none;fillColor=none;strokeWidth=4;" parent="WIyWlLk6GJQsqaUBKTNV-1" vertex="1">
          <mxGeometry x="2160" y="1830" width="40" height="40" as="geometry" />
        </mxCell>
        <mxCell id="_sAIt1mrX6FmBIjSAhMb-75" value="&lt;font style=&quot;font-size: 23px;&quot;&gt;T&lt;/font&gt;" style="text;html=1;align=center;verticalAlign=middle;resizable=0;points=[];autosize=1;strokeColor=none;fillColor=none;strokeWidth=4;" parent="WIyWlLk6GJQsqaUBKTNV-1" vertex="1">
          <mxGeometry x="2441" y="1830" width="40" height="40" as="geometry" />
        </mxCell>
        <mxCell id="_sAIt1mrX6FmBIjSAhMb-76" value="&lt;font style=&quot;font-size: 22px;&quot;&gt;insert ข้อมูล รหัสคอร์ส&lt;br&gt;เเละรายชื่อนักศึกษาคนที่ i เข้าฐานข้อมูล&lt;/font&gt;" style="rounded=0;whiteSpace=wrap;html=1;strokeWidth=4;" parent="WIyWlLk6GJQsqaUBKTNV-1" vertex="1">
          <mxGeometry x="2380" y="1981" width="220" height="120" as="geometry" />
        </mxCell>
        <mxCell id="_sAIt1mrX6FmBIjSAhMb-77" value="" style="ellipse;whiteSpace=wrap;html=1;aspect=fixed;strokeWidth=4;" parent="WIyWlLk6GJQsqaUBKTNV-1" vertex="1">
          <mxGeometry x="2298.75" y="1090.25" width="50" height="50" as="geometry" />
        </mxCell>
        <mxCell id="_sAIt1mrX6FmBIjSAhMb-78" value="" style="endArrow=classic;html=1;rounded=0;exitX=0;exitY=0.5;exitDx=0;exitDy=0;entryX=0.5;entryY=0;entryDx=0;entryDy=0;strokeWidth=4;" parent="WIyWlLk6GJQsqaUBKTNV-1" source="_sAIt1mrX6FmBIjSAhMb-73" target="_sAIt1mrX6FmBIjSAhMb-66" edge="1">
          <mxGeometry width="50" height="50" relative="1" as="geometry">
            <mxPoint x="2211.56" y="1981" as="sourcePoint" />
            <mxPoint x="1988.9300000000003" y="2536" as="targetPoint" />
            <Array as="points">
              <mxPoint x="2062" y="1864" />
            </Array>
          </mxGeometry>
        </mxCell>
        <mxCell id="_sAIt1mrX6FmBIjSAhMb-79" value="" style="endArrow=classic;html=1;rounded=0;strokeWidth=4;" parent="WIyWlLk6GJQsqaUBKTNV-1" edge="1">
          <mxGeometry width="50" height="50" relative="1" as="geometry">
            <mxPoint x="2323" y="1145" as="sourcePoint" />
            <mxPoint x="2323.4300000000003" y="1185" as="targetPoint" />
          </mxGeometry>
        </mxCell>
        <mxCell id="_sAIt1mrX6FmBIjSAhMb-80" value="" style="endArrow=classic;html=1;rounded=0;entryX=1;entryY=0.5;entryDx=0;entryDy=0;exitX=1;exitY=0.5;exitDx=0;exitDy=0;strokeWidth=4;" parent="WIyWlLk6GJQsqaUBKTNV-1" source="_sAIt1mrX6FmBIjSAhMb-151" target="_sAIt1mrX6FmBIjSAhMb-86" edge="1">
          <mxGeometry width="50" height="50" relative="1" as="geometry">
            <mxPoint x="2639.9999999999995" y="2447.7500000000005" as="sourcePoint" />
            <mxPoint x="2333" y="1445" as="targetPoint" />
            <Array as="points">
              <mxPoint x="2760" y="2458" />
              <mxPoint x="3040" y="2458" />
              <mxPoint x="3030" y="1446" />
            </Array>
          </mxGeometry>
        </mxCell>
        <mxCell id="_sAIt1mrX6FmBIjSAhMb-81" value="&lt;font style=&quot;font-size: 22px;&quot;&gt;อ่านข้อมูลรหัสนักศึกษา&lt;br&gt;ที่มี course_id ตรงกับ&lt;br&gt;course ที่จะ insert &lt;br&gt;จาก table&amp;nbsp;&lt;br&gt;STD_REG_COURSE&lt;/font&gt;&lt;span style=&quot;font-size: 22px;&quot;&gt;&lt;br&gt;&lt;/span&gt;" style="rounded=0;whiteSpace=wrap;html=1;strokeWidth=4;" parent="WIyWlLk6GJQsqaUBKTNV-1" vertex="1">
          <mxGeometry x="2206.96" y="1556" width="253.93" height="140" as="geometry" />
        </mxCell>
        <mxCell id="_sAIt1mrX6FmBIjSAhMb-82" value="" style="endArrow=classic;html=1;rounded=0;exitX=0;exitY=0.5;exitDx=0;exitDy=0;exitPerimeter=0;dashed=1;entryX=1;entryY=0.5;entryDx=0;entryDy=0;strokeWidth=4;" parent="WIyWlLk6GJQsqaUBKTNV-1" source="_sAIt1mrX6FmBIjSAhMb-83" target="_sAIt1mrX6FmBIjSAhMb-81" edge="1">
          <mxGeometry width="50" height="50" relative="1" as="geometry">
            <mxPoint x="2437.93" y="1626" as="sourcePoint" />
            <mxPoint x="2449.18" y="1596" as="targetPoint" />
          </mxGeometry>
        </mxCell>
        <mxCell id="_sAIt1mrX6FmBIjSAhMb-83" value="&lt;font style=&quot;font-size: 22px;&quot;&gt;&lt;font style=&quot;font-size: 22px;&quot;&gt;Database&amp;nbsp;&lt;br&gt;&lt;br&gt;STD_REG_COURSE&lt;br&gt;&lt;br style=&quot;border-color: var(--border-color);&quot;&gt;&lt;br&gt;&lt;/font&gt;&lt;/font&gt;" style="shape=cylinder3;whiteSpace=wrap;html=1;boundedLbl=1;backgroundOutline=1;size=15;strokeWidth=4;" parent="WIyWlLk6GJQsqaUBKTNV-1" vertex="1">
          <mxGeometry x="2588.18" y="1571" width="224.25" height="110" as="geometry" />
        </mxCell>
        <mxCell id="_sAIt1mrX6FmBIjSAhMb-84" value="" style="endArrow=classic;html=1;rounded=0;exitX=0.5;exitY=1;exitDx=0;exitDy=0;entryX=0.5;entryY=0;entryDx=0;entryDy=0;strokeWidth=4;" parent="WIyWlLk6GJQsqaUBKTNV-1" edge="1">
          <mxGeometry width="50" height="50" relative="1" as="geometry">
            <mxPoint x="2321.6600000000003" y="1491" as="sourcePoint" />
            <mxPoint x="2321.6600000000003" y="1556" as="targetPoint" />
          </mxGeometry>
        </mxCell>
        <mxCell id="_sAIt1mrX6FmBIjSAhMb-85" value="" style="endArrow=classic;html=1;rounded=0;exitX=0.5;exitY=1;exitDx=0;exitDy=0;entryX=0.5;entryY=0;entryDx=0;entryDy=0;strokeWidth=4;" parent="WIyWlLk6GJQsqaUBKTNV-1" edge="1">
          <mxGeometry width="50" height="50" relative="1" as="geometry">
            <mxPoint x="2312.93" y="1696" as="sourcePoint" />
            <mxPoint x="2312.93" y="1761" as="targetPoint" />
          </mxGeometry>
        </mxCell>
        <mxCell id="_sAIt1mrX6FmBIjSAhMb-86" value="&lt;font style=&quot;font-size: 22px;&quot;&gt;สกัดข้อมูลรายชื่อนักศึกษาคนที่ i&lt;br&gt;&amp;nbsp;จากไฟล์&lt;/font&gt;" style="rounded=0;whiteSpace=wrap;html=1;strokeWidth=4;" parent="WIyWlLk6GJQsqaUBKTNV-1" vertex="1">
          <mxGeometry x="2223.93" y="1381" width="220" height="130" as="geometry" />
        </mxCell>
        <mxCell id="_sAIt1mrX6FmBIjSAhMb-87" value="&lt;font style=&quot;font-size: 22px;&quot;&gt;ยังไม่มีวิชานี้ของ&lt;br&gt;เทอมเเละปีการศึกษาปัจจุบันในฐานข้อมูล&lt;/font&gt;" style="rhombus;whiteSpace=wrap;html=1;strokeWidth=4;" parent="WIyWlLk6GJQsqaUBKTNV-1" vertex="1">
          <mxGeometry x="1823.75" y="925" width="268" height="230" as="geometry" />
        </mxCell>
        <mxCell id="_sAIt1mrX6FmBIjSAhMb-88" value="&lt;font style=&quot;font-size: 23px;&quot;&gt;F&lt;/font&gt;" style="text;html=1;align=center;verticalAlign=middle;resizable=0;points=[];autosize=1;strokeColor=none;fillColor=none;strokeWidth=4;" parent="WIyWlLk6GJQsqaUBKTNV-1" vertex="1">
          <mxGeometry x="1770.0000000000002" y="985" width="40" height="40" as="geometry" />
        </mxCell>
        <mxCell id="_sAIt1mrX6FmBIjSAhMb-89" value="&lt;font style=&quot;font-size: 23px;&quot;&gt;T&lt;/font&gt;" style="text;html=1;align=center;verticalAlign=middle;resizable=0;points=[];autosize=1;strokeColor=none;fillColor=none;strokeWidth=4;" parent="WIyWlLk6GJQsqaUBKTNV-1" vertex="1">
          <mxGeometry x="2091.75" y="985" width="40" height="40" as="geometry" />
        </mxCell>
        <mxCell id="_sAIt1mrX6FmBIjSAhMb-90" value="&lt;font style=&quot;font-size: 22px;&quot;&gt;อ่านข้อมูลรหัสวิชานี้&lt;br&gt;จาก table&amp;nbsp;&lt;br&gt;STD_REG_COURSE&lt;/font&gt;&lt;span style=&quot;font-size: 22px;&quot;&gt;&lt;br&gt;&lt;/span&gt;" style="rounded=0;whiteSpace=wrap;html=1;strokeWidth=4;" parent="WIyWlLk6GJQsqaUBKTNV-1" vertex="1">
          <mxGeometry x="1849.5000000000002" y="720" width="220" height="140" as="geometry" />
        </mxCell>
        <mxCell id="_sAIt1mrX6FmBIjSAhMb-91" value="" style="endArrow=classic;html=1;rounded=0;exitX=0;exitY=0.5;exitDx=0;exitDy=0;exitPerimeter=0;dashed=1;entryX=1;entryY=0.5;entryDx=0;entryDy=0;strokeWidth=4;" parent="WIyWlLk6GJQsqaUBKTNV-1" source="_sAIt1mrX6FmBIjSAhMb-93" target="_sAIt1mrX6FmBIjSAhMb-90" edge="1">
          <mxGeometry width="50" height="50" relative="1" as="geometry">
            <mxPoint x="2073.5" y="790" as="sourcePoint" />
            <mxPoint x="2084.75" y="760" as="targetPoint" />
          </mxGeometry>
        </mxCell>
        <mxCell id="_sAIt1mrX6FmBIjSAhMb-92" value="" style="endArrow=classic;html=1;rounded=0;exitX=0.5;exitY=1;exitDx=0;exitDy=0;strokeWidth=4;" parent="WIyWlLk6GJQsqaUBKTNV-1" edge="1">
          <mxGeometry width="50" height="50" relative="1" as="geometry">
            <mxPoint x="1957.2300000000002" y="860" as="sourcePoint" />
            <mxPoint x="1957.5000000000002" y="920" as="targetPoint" />
          </mxGeometry>
        </mxCell>
        <mxCell id="_sAIt1mrX6FmBIjSAhMb-93" value="&lt;font style=&quot;font-size: 22px;&quot;&gt;&lt;font style=&quot;font-size: 22px;&quot;&gt;Database&amp;nbsp;&lt;br&gt;&lt;br&gt;STD_REG_COURSE&lt;br&gt;&lt;br style=&quot;border-color: var(--border-color);&quot;&gt;&lt;br&gt;&lt;/font&gt;&lt;/font&gt;" style="shape=cylinder3;whiteSpace=wrap;html=1;boundedLbl=1;backgroundOutline=1;size=15;strokeWidth=4;" parent="WIyWlLk6GJQsqaUBKTNV-1" vertex="1">
          <mxGeometry x="2223.75" y="735" width="224.25" height="110" as="geometry" />
        </mxCell>
        <mxCell id="_sAIt1mrX6FmBIjSAhMb-94" value="" style="ellipse;whiteSpace=wrap;html=1;aspect=fixed;fillColor=#000000;strokeWidth=4;" parent="WIyWlLk6GJQsqaUBKTNV-1" vertex="1">
          <mxGeometry x="1934.5000000000002" y="420" width="50" height="50" as="geometry" />
        </mxCell>
        <mxCell id="_sAIt1mrX6FmBIjSAhMb-95" value="" style="endArrow=classic;html=1;rounded=0;exitX=0.5;exitY=1;exitDx=0;exitDy=0;strokeWidth=4;" parent="WIyWlLk6GJQsqaUBKTNV-1" source="_sAIt1mrX6FmBIjSAhMb-94" edge="1">
          <mxGeometry width="50" height="50" relative="1" as="geometry">
            <mxPoint x="1974.5000000000002" y="650" as="sourcePoint" />
            <mxPoint x="1959.5000000000002" y="520" as="targetPoint" />
          </mxGeometry>
        </mxCell>
        <mxCell id="_sAIt1mrX6FmBIjSAhMb-96" value="" style="endArrow=classic;html=1;rounded=0;exitX=0.5;exitY=1;exitDx=0;exitDy=0;entryX=0.5;entryY=0;entryDx=0;entryDy=0;strokeWidth=4;" parent="WIyWlLk6GJQsqaUBKTNV-1" source="_sAIt1mrX6FmBIjSAhMb-97" edge="1">
          <mxGeometry width="50" height="50" relative="1" as="geometry">
            <mxPoint x="2039.5000000000002" y="690" as="sourcePoint" />
            <mxPoint x="1959.5" y="719.9999999999998" as="targetPoint" />
          </mxGeometry>
        </mxCell>
        <mxCell id="_sAIt1mrX6FmBIjSAhMb-97" value="&lt;span style=&quot;font-size: 22px;&quot;&gt;เปิดไฟล์ข้อมูลการลงทะเบียนของคอร์ส&lt;/span&gt;" style="rounded=0;whiteSpace=wrap;html=1;strokeWidth=4;" parent="WIyWlLk6GJQsqaUBKTNV-1" vertex="1">
          <mxGeometry x="1849.5000000000002" y="515" width="220" height="140" as="geometry" />
        </mxCell>
        <mxCell id="_sAIt1mrX6FmBIjSAhMb-100" value="" style="endArrow=classic;html=1;rounded=0;exitX=0;exitY=0.5;exitDx=0;exitDy=0;entryX=0;entryY=0.5;entryDx=0;entryDy=0;strokeWidth=4;" parent="WIyWlLk6GJQsqaUBKTNV-1" source="_sAIt1mrX6FmBIjSAhMb-87" target="_sAIt1mrX6FmBIjSAhMb-66" edge="1">
          <mxGeometry width="50" height="50" relative="1" as="geometry">
            <mxPoint x="1791.9400000000003" y="1000" as="sourcePoint" />
            <mxPoint x="1923.0000000000002" y="1825" as="targetPoint" />
            <Array as="points">
              <mxPoint x="1720" y="1040" />
              <mxPoint x="1720" y="2460" />
            </Array>
          </mxGeometry>
        </mxCell>
        <mxCell id="_sAIt1mrX6FmBIjSAhMb-101" value="" style="endArrow=classic;html=1;rounded=0;exitX=1;exitY=0.5;exitDx=0;exitDy=0;strokeWidth=4;" parent="WIyWlLk6GJQsqaUBKTNV-1" source="_sAIt1mrX6FmBIjSAhMb-87" edge="1">
          <mxGeometry width="50" height="50" relative="1" as="geometry">
            <mxPoint x="2123.75" y="1015" as="sourcePoint" />
            <mxPoint x="2323" y="1085" as="targetPoint" />
            <Array as="points">
              <mxPoint x="2323" y="1040" />
            </Array>
          </mxGeometry>
        </mxCell>
        <mxCell id="_sAIt1mrX6FmBIjSAhMb-144" value="&lt;span style=&quot;font-size: 22px;&quot;&gt;i = 0&lt;/span&gt;" style="rounded=0;whiteSpace=wrap;html=1;strokeWidth=4;" parent="WIyWlLk6GJQsqaUBKTNV-1" vertex="1">
          <mxGeometry x="2213.93" y="1185" width="220" height="130" as="geometry" />
        </mxCell>
        <mxCell id="_sAIt1mrX6FmBIjSAhMb-145" value="" style="endArrow=classic;html=1;rounded=0;exitX=0.5;exitY=1;exitDx=0;exitDy=0;entryX=0.5;entryY=0;entryDx=0;entryDy=0;strokeWidth=4;" parent="WIyWlLk6GJQsqaUBKTNV-1" edge="1">
          <mxGeometry width="50" height="50" relative="1" as="geometry">
            <mxPoint x="2322.9199999999996" y="1315" as="sourcePoint" />
            <mxPoint x="2322.9199999999996" y="1380" as="targetPoint" />
          </mxGeometry>
        </mxCell>
        <mxCell id="_sAIt1mrX6FmBIjSAhMb-146" value="&lt;font style=&quot;font-size: 22px;&quot;&gt;i = i+1&lt;br&gt;&lt;/font&gt;" style="rounded=0;whiteSpace=wrap;html=1;strokeWidth=4;" parent="WIyWlLk6GJQsqaUBKTNV-1" vertex="1">
          <mxGeometry x="2380.0000000000005" y="2165" width="220" height="120" as="geometry" />
        </mxCell>
        <mxCell id="_sAIt1mrX6FmBIjSAhMb-147" value="" style="endArrow=classic;html=1;rounded=0;exitX=0.5;exitY=1;exitDx=0;exitDy=0;entryX=0.5;entryY=0;entryDx=0;entryDy=0;strokeWidth=4;" parent="WIyWlLk6GJQsqaUBKTNV-1" edge="1">
          <mxGeometry width="50" height="50" relative="1" as="geometry">
            <mxPoint x="2483.93" y="2096.25" as="sourcePoint" />
            <mxPoint x="2483.93" y="2161.25" as="targetPoint" />
          </mxGeometry>
        </mxCell>
        <mxCell id="_sAIt1mrX6FmBIjSAhMb-150" value="" style="endArrow=classic;html=1;rounded=0;exitX=0.5;exitY=1;exitDx=0;exitDy=0;entryX=0.5;entryY=0;entryDx=0;entryDy=0;strokeWidth=4;" parent="WIyWlLk6GJQsqaUBKTNV-1" edge="1">
          <mxGeometry width="50" height="50" relative="1" as="geometry">
            <mxPoint x="2482.75" y="2285" as="sourcePoint" />
            <mxPoint x="2482.75" y="2350" as="targetPoint" />
          </mxGeometry>
        </mxCell>
        <mxCell id="_sAIt1mrX6FmBIjSAhMb-151" value="&lt;font style=&quot;font-size: 22px;&quot;&gt;i น้อยกว่าขนาด&lt;br style=&quot;border-color: var(--border-color);&quot;&gt;ของอาเรย์&lt;br style=&quot;border-color: var(--border-color);&quot;&gt;ที่เก็บรายชื่อนักศึกษา&lt;/font&gt;" style="rhombus;whiteSpace=wrap;html=1;strokeWidth=4;" parent="WIyWlLk6GJQsqaUBKTNV-1" vertex="1">
          <mxGeometry x="2348.75" y="2355" width="268.18" height="205.25" as="geometry" />
        </mxCell>
        <mxCell id="_sAIt1mrX6FmBIjSAhMb-152" value="&lt;font style=&quot;font-size: 23px;&quot;&gt;T&lt;/font&gt;" style="text;html=1;align=center;verticalAlign=middle;resizable=0;points=[];autosize=1;strokeColor=none;fillColor=none;strokeWidth=4;" parent="WIyWlLk6GJQsqaUBKTNV-1" vertex="1">
          <mxGeometry x="2630" y="2395" width="40" height="40" as="geometry" />
        </mxCell>
        <mxCell id="_sAIt1mrX6FmBIjSAhMb-153" value="&lt;font style=&quot;font-size: 23px;&quot;&gt;F&lt;/font&gt;" style="text;html=1;align=center;verticalAlign=middle;resizable=0;points=[];autosize=1;strokeColor=none;fillColor=none;strokeWidth=4;" parent="WIyWlLk6GJQsqaUBKTNV-1" vertex="1">
          <mxGeometry x="2293.93" y="2405" width="40" height="40" as="geometry" />
        </mxCell>
        <mxCell id="_sAIt1mrX6FmBIjSAhMb-154" value="" style="endArrow=classic;html=1;rounded=0;exitX=0;exitY=0.5;exitDx=0;exitDy=0;entryX=1;entryY=0.5;entryDx=0;entryDy=0;strokeWidth=4;" parent="WIyWlLk6GJQsqaUBKTNV-1" source="_sAIt1mrX6FmBIjSAhMb-151" target="_sAIt1mrX6FmBIjSAhMb-66" edge="1">
          <mxGeometry width="50" height="50" relative="1" as="geometry">
            <mxPoint x="2333.22" y="2301" as="sourcePoint" />
            <mxPoint x="2230" y="2455" as="targetPoint" />
          </mxGeometry>
        </mxCell>
        <mxCell id="0i6wcJ_05ikz1qf3UyQA-0" value="&lt;font style=&quot;font-size: 22px;&quot;&gt;&lt;font style=&quot;font-size: 22px;&quot;&gt;Database&amp;nbsp;&lt;br&gt;&lt;br&gt;STD_REG_COURSE&lt;br&gt;&lt;br style=&quot;border-color: var(--border-color);&quot;&gt;&lt;br&gt;&lt;/font&gt;&lt;/font&gt;" style="shape=cylinder3;whiteSpace=wrap;html=1;boundedLbl=1;backgroundOutline=1;size=15;strokeWidth=4;" parent="WIyWlLk6GJQsqaUBKTNV-1" vertex="1">
          <mxGeometry x="2750" y="1986" width="224.25" height="110" as="geometry" />
        </mxCell>
        <mxCell id="0i6wcJ_05ikz1qf3UyQA-1" value="" style="endArrow=classic;html=1;rounded=0;exitX=1;exitY=0.5;exitDx=0;exitDy=0;dashed=1;entryX=0;entryY=0.5;entryDx=0;entryDy=0;entryPerimeter=0;strokeWidth=4;" parent="WIyWlLk6GJQsqaUBKTNV-1" source="_sAIt1mrX6FmBIjSAhMb-76" target="0i6wcJ_05ikz1qf3UyQA-0" edge="1">
          <mxGeometry width="50" height="50" relative="1" as="geometry">
            <mxPoint x="2757" y="1950" as="sourcePoint" />
            <mxPoint x="2630" y="1950" as="targetPoint" />
          </mxGeometry>
        </mxCell>
      </root>
    </mxGraphModel>
  </diagram>
</mxfile>
